<svg xmlns="http://www.w3.org/2000/svg" width="1440" height="200" fill="none"><path fill="#F67E7E" d="M0 0h1440v200H0z"/><path fill="#2C6269" d="M100 200H0V100h100z"/><path fill="#004047" fill-rule="evenodd" d="M100 300c55.228 0 100-44.772 100-100s-44.772-100-100-100S0 144.772 0 200s44.772 100 100 100Zm0-67c18.225 0 33-14.775 33-33s-14.775-33-33-33-33 14.775-33 33 14.775 33 33 33Z" clip-rule="evenodd"/><path fill="#F67E7E" fill-rule="evenodd" d="M100 156H0v4h100v-4Zm0 8H0v4h100v-4ZM0 172h100v4H0v-4Zm100 8H0v4h100v-4ZM0 188h100v4H0v-4Zm100 8H0v4h100v-4Z" clip-rule="evenodd"/><path fill="#79C8C7" fill-rule="evenodd" d="M0 56h4v4H0v-4Zm11 0H7v4h4v-4Zm0 8H7v4h4v-4Zm-4 8h4v4H7v-4Zm4 8H7v4h4v-4Zm-4 8h4v4H7v-4Zm4 8H7v4h4v-4Zm3-40h4v4h-4v-4Zm0 8h4v4h-4v-4Zm4 8h-4v4h4v-4Zm-4 8h4v4h-4v-4Zm4 8h-4v4h4v-4Zm-4 8h4v4h-4v-4ZM0 64h4v4H0v-4Zm21-8h4v4h-4v-4Zm0 8h4v4h-4v-4Zm4 8h-4v4h4v-4Zm-4 8h4v4h-4v-4Zm4 8h-4v4h4v-4Zm-4 8h4v4h-4v-4ZM0 72h4v4H0v-4Zm28-16h4v4h-4v-4Zm0 8h4v4h-4v-4Zm4 8h-4v4h4v-4Zm-4 8h4v4h-4v-4Zm4 8h-4v4h4v-4Zm-4 8h4v4h-4v-4ZM0 80h4v4H0v-4Zm35-24h4v4h-4v-4Zm0 8h4v4h-4v-4Zm4 8h-4v4h4v-4Zm-4 8h4v4h-4v-4Zm4 8h-4v4h4v-4Zm-4 8h4v4h-4v-4ZM0 88h4v4H0v-4Zm42-32h4v4h-4v-4Zm0 8h4v4h-4v-4Zm4 8h-4v4h4v-4Zm-4 8h4v4h-4v-4Zm4 8h-4v4h4v-4Zm-4 8h4v4h-4v-4ZM0 96h4v4H0v-4Zm49-40h4v4h-4v-4Zm0 8h4v4h-4v-4Zm4 8h-4v4h4v-4Zm-4 8h4v4h-4v-4Zm4 8h-4v4h4v-4Zm-4 8h4v4h-4v-4Z" clip-rule="evenodd"/></svg>