<svg xmlns="http://www.w3.org/2000/svg" width="1440" height="745" fill="none"><g clip-path="url(#a)"><path fill="#004047" d="M0 0h1440v745H0z"/><mask id="b" width="1440" height="745" x="0" y="0" maskUnits="userSpaceOnUse" style="mask-type:luminance"><path fill="#fff" d="M0 0h1440v745H0z"/></mask><g mask="url(#b)"><path fill="#002529" d="M0 100h100V0H0z"/><path fill="#79C8C7" fill-rule="evenodd" d="M47 56h100v4H47v-4Zm0 8h100v4H47v-4Zm100 8H47v4h100v-4ZM47 80h100v4H47v-4Zm100 8H47v4h100v-4ZM47 96h100v4H47v-4Z" clip-rule="evenodd"/><path fill="#2C6269" d="M1340 745h100V645h-100z"/><path fill="#012F34" fill-rule="evenodd" d="M1340 845c-55.23 0-100-44.772-100-100s44.77-100 100-100 100 44.772 100 100-44.77 100-100 100Zm0-67c-18.23 0-33-14.775-33-33s14.77-33 33-33 33 14.775 33 33-14.77 33-33 33Z" clip-rule="evenodd"/><path fill="#79C8C7" fill-rule="evenodd" d="M1340 701h100v4h-100v-4Zm0 8h100v4h-100v-4Zm100 8h-100v4h100v-4Zm-100 8h100v4h-100v-4Zm100 8h-100v4h100v-4Zm-100 8h100v4h-100v-4Z" clip-rule="evenodd"/></g></g><defs><clipPath id="a"><path fill="#fff" d="M0 0h1440v745H0z"/></clipPath></defs></svg>