<svg xmlns="http://www.w3.org/2000/svg" width="1440" height="700" fill="none"><g clip-path="url(#a)"><path fill="#014E56" d="M0 0h1440v700H0z"/><mask id="b" width="1440" height="700" x="0" y="0" maskUnits="userSpaceOnUse" style="mask-type:luminance"><path fill="#fff" d="M0 0h1440v700H0z"/></mask><g mask="url(#b)"><path fill="#79C8C7" d="M0 450h100V350H0z"/><path fill="#012F34" fill-rule="evenodd" d="M0 450c-55.228 0-100-44.772-100-100S-55.228 250 0 250s100 44.772 100 100S55.228 450 0 450Zm0-67c-18.225 0-33-14.775-33-33s14.775-33 33-33 33 14.775 33 33-14.775 33-33 33Z" clip-rule="evenodd"/><path fill="#F67E7E" fill-rule="evenodd" d="M100 406h-4v4h4v-4Zm-11 0h4v4h-4v-4Zm0 8h4v4h-4v-4Zm4 8h-4v4h4v-4Zm-4 8h4v4h-4v-4Zm4 8h-4v4h4v-4Zm-4 8h4v4h-4v-4Zm-3-40h-4v4h4v-4Zm0 8h-4v4h4v-4Zm-4 8h4v4h-4v-4Zm4 8h-4v4h4v-4Zm-4 8h4v4h-4v-4Zm4 8h-4v4h4v-4Zm14-32h-4v4h4v-4Zm-21-8h-4v4h4v-4Zm0 8h-4v4h4v-4Zm-4 8h4v4h-4v-4Zm4 8h-4v4h4v-4Zm-4 8h4v4h-4v-4Zm4 8h-4v4h4v-4Zm21-24h-4v4h4v-4Zm-28-16h-4v4h4v-4Zm0 8h-4v4h4v-4Zm-4 8h4v4h-4v-4Zm4 8h-4v4h4v-4Zm-4 8h4v4h-4v-4Zm4 8h-4v4h4v-4Zm28-16h-4v4h4v-4Zm-35-24h-4v4h4v-4Zm0 8h-4v4h4v-4Zm-4 8h4v4h-4v-4Zm4 8h-4v4h4v-4Zm-4 8h4v4h-4v-4Zm4 8h-4v4h4v-4Zm35-8h-4v4h4v-4Zm-42-32h-4v4h4v-4Zm0 8h-4v4h4v-4Zm-4 8h4v4h-4v-4Zm4 8h-4v4h4v-4Zm-4 8h4v4h-4v-4Zm4 8h-4v4h4v-4Zm42 0h-4v4h4v-4Zm-49-40h-4v4h4v-4Zm0 8h-4v4h4v-4Zm-4 8h4v4h-4v-4Zm4 8h-4v4h4v-4Zm-4 8h4v4h-4v-4Zm4 8h-4v4h4v-4Z" clip-rule="evenodd"/><circle cx="1017" cy="700" r="100" fill="#2C6269"/><path fill="#012F34" fill-rule="evenodd" d="M1175 800c55.23 0 100-44.772 100-100s-44.77-100-100-100-100 44.772-100 100 44.77 100 100 100Zm0-67c18.23 0 33-14.775 33-33s-14.77-33-33-33-33 14.775-33 33 14.77 33 33 33Z" clip-rule="evenodd"/><path fill="#79C8C7" d="M1275 643h-43v-43h43z"/><path fill="#F67E7E" fill-rule="evenodd" d="M1150.51 800c55.23 0 100-44.772 100-100s-44.77-100-100-100-100 44.772-100 100 44.77 100 100 100Zm0-67c18.23 0 33-14.775 33-33s-14.77-33-33-33c-18.22 0-33 14.775-33 33s14.78 33 33 33Z" clip-rule="evenodd"/><path fill="#79C8C7" fill-rule="evenodd" d="M1017 600H917v4h100v-4Zm0 8H917v4h100v-4Zm-100 8h100v4H917v-4Zm100 8H917v4h100v-4Zm-100 8h100v4H917v-4Zm100 8H917v4h100v-4Z" clip-rule="evenodd"/></g></g><defs><clipPath id="a"><path fill="#fff" d="M0 0h1440v700H0z"/></clipPath></defs></svg>