<svg xmlns="http://www.w3.org/2000/svg" width="1440" height="684" fill="none"><g clip-path="url(#a)"><path fill="#012F34" d="M0 0h1440v684H0z"/><mask id="b" width="1440" height="684" x="0" y="0" maskUnits="userSpaceOnUse" style="mask-type:luminance"><path fill="#fff" d="M0 0h1440v684H0z"/></mask><g mask="url(#b)"><path fill="#2C6269" d="M1440 584h-100V484h100z"/><path fill="#014E56" fill-rule="evenodd" d="M1440 684c55.23 0 100-44.772 100-100s-44.77-100-100-100-100 44.772-100 100 44.77 100 100 100Zm0-67c18.23 0 33-14.775 33-33s-14.77-33-33-33-33 14.775-33 33 14.77 33 33 33Z" clip-rule="evenodd"/><path fill="#79C8C7" fill-rule="evenodd" d="M1440 584h-100v4h100v-4Zm0 8h-100v4h100v-4Zm-100 8h100v4h-100v-4Zm100 8h-100v4h100v-4Zm-100 8h100v4h-100v-4Zm100 8h-100v4h100v-4ZM1340 440h4v4h-4v-4Zm11 0h-4v4h4v-4Zm0 8h-4v4h4v-4Zm-4 8h4v4h-4v-4Zm4 8h-4v4h4v-4Zm-4 8h4v4h-4v-4Zm4 8h-4v4h4v-4Zm3-40h4v4h-4v-4Zm0 8h4v4h-4v-4Zm4 8h-4v4h4v-4Zm-4 8h4v4h-4v-4Zm4 8h-4v4h4v-4Zm-4 8h4v4h-4v-4Zm-14-32h4v4h-4v-4Zm21-8h4v4h-4v-4Zm0 8h4v4h-4v-4Zm4 8h-4v4h4v-4Zm-4 8h4v4h-4v-4Zm4 8h-4v4h4v-4Zm-4 8h4v4h-4v-4Zm-21-24h4v4h-4v-4Zm28-16h4v4h-4v-4Zm0 8h4v4h-4v-4Zm4 8h-4v4h4v-4Zm-4 8h4v4h-4v-4Zm4 8h-4v4h4v-4Zm-4 8h4v4h-4v-4Zm-28-16h4v4h-4v-4Zm35-24h4v4h-4v-4Zm0 8h4v4h-4v-4Zm4 8h-4v4h4v-4Zm-4 8h4v4h-4v-4Zm4 8h-4v4h4v-4Zm-4 8h4v4h-4v-4Zm-35-8h4v4h-4v-4Zm42-32h4v4h-4v-4Zm0 8h4v4h-4v-4Zm4 8h-4v4h4v-4Zm-4 8h4v4h-4v-4Zm4 8h-4v4h4v-4Zm-4 8h4v4h-4v-4Zm-42 0h4v4h-4v-4Zm49-40h4v4h-4v-4Zm0 8h4v4h-4v-4Zm4 8h-4v4h4v-4Zm-4 8h4v4h-4v-4Zm4 8h-4v4h4v-4Zm-4 8h4v4h-4v-4Z" clip-rule="evenodd"/></g></g><defs><clipPath id="a"><path fill="#fff" d="M0 0h1440v684H0z"/></clipPath></defs></svg>